<svg xmlns="http://www.w3.org/2000/svg" viewBox="0 0 176 66"><path fill="currentColor" fill-rule="evenodd" d="M4 10H60V54H4ZM8 14V50H56V14Z"/><rect x="12" y="20" width="28" height="4" class="ink" fill="#5B3FC4"/><g fill="currentColor"><rect x="40" y="22" width="12" height="2"/><rect x="12" y="30" width="40" height="2"/><circle cx="32" cy="42" r="4"/></g><g transform="translate(84 0)"><g fill="none" stroke="currentColor" stroke-width="6"><path d="M3 20V30A7 7 0 0 0 17 30M17 20V48A7 7 0 0 1 10 55H4"/><path transform="translate(26 0)" d="M3 20V44M3 29A7 7 0 0 1 17 29V44M17 29A7 7 0 0 1 31 29V44"/><circle cx="77" cy="32" r="10"/><path d="M87 8V44"/></g><rect x="0" y="62" width="92" height="2" fill="currentColor" opacity=".35"/><rect x="0" y="61" width="58" height="3" class="ink" fill="#5B3FC4"/></g></svg>
